# 3ds Max Wavefront OBJ Exporter v0.97b - (c)2007 guruware
# File Created: 17.12.2017 02:29:36

mtllib rock_d_06.mtl

#
# object rockLP001
#

v  -1.2998 0.2341 0.9279
v  -1.1793 0.6498 1.8956
v  -0.6858 1.0873 1.4316
v  0.2694 -1.3770 1.0244
v  0.1636 -1.0187 2.2225
v  -0.2342 -1.1955 1.9372
v  0.2513 0.6959 0.0433
v  0.6903 -0.2307 0.1131
v  -0.2287 -0.7157 0.0578
v  1.2286 -0.7474 0.9999
v  1.1295 0.6834 1.0175
v  1.1943 -0.2931 1.4969
v  -0.2753 -0.8401 2.4980
v  -0.2677 1.1982 1.4498
v  -0.1953 0.8006 2.0695
v  0.1857 1.0671 1.8538
v  -0.6915 -1.2092 1.4447
v  -0.7389 -0.7640 0.4902
v  -0.2206 -1.1117 0.6011
v  -1.4112 0.2663 1.4597
v  -0.9905 0.1381 2.1361
v  0.7268 -0.8195 2.0233
v  0.5992 0.1763 2.3071
v  0.1850 0.1598 2.4520
v  1.2442 -0.7910 1.4980
v  0.5709 0.9458 1.8099
v  0.6971 1.0919 0.9844
v  -0.2302 0.7662 -0.0730
v  -0.7463 0.2356 -0.0576
v  -0.7707 0.7709 0.4350
v  0.6883 -0.6646 0.1617
v  0.1974 -0.9744 0.3138
v  0.7013 -1.1844 1.4947
v  -0.8112 0.7249 1.9960
v  -0.3280 0.1688 2.5310
v  -1.2374 -0.2502 1.4378
v  -1.2104 -0.2643 0.4551
v  -1.1529 -0.7042 0.9978
v  -0.7689 -0.2762 2.3830
v  -1.1674 -0.2628 1.8575
v  -0.9589 -0.9832 1.7919
v  1.3255 -0.2358 0.4854
v  0.9651 0.1845 0.2736
v  1.1296 0.6990 0.5672
v  0.6654 -1.1300 0.6034
v  -0.2212 1.1770 0.9556
v  0.2639 1.0645 0.5223
v  -0.5113 0.9176 0.2974
v  0.6872 0.6620 1.9380
v  0.8444 0.8192 1.7218
v  0.7649 0.7397 0.4421
v  -1.0232 0.1711 0.1630
v  -1.0796 -0.6439 1.4366
v  0.9833 -0.5633 0.3203
v  -0.6200 -1.0526 2.2184
v  0.2056 0.5848 2.3130
v  -0.5097 -0.8454 0.3806
v  0.8793 -0.9600 1.8200
v  1.0875 0.1638 1.9239
v  0.8720 -0.2337 2.1621
# 60 vertices

vn -0.8312 0.5292 -0.1703
vn -0.8117 0.5819 -0.0511
vn -0.6797 0.7283 0.0866
vn 0.1411 -0.9681 0.2072
vn 0.1492 -0.9312 0.3325
vn -0.0938 -0.9711 0.2194
vn 0.3078 0.0716 -0.9488
vn 0.2068 -0.1345 -0.9691
vn -0.1523 -0.3185 -0.9356
vn 0.9878 -0.1442 -0.0586
vn 0.9725 0.1919 0.1321
vn 0.9847 0.0266 0.1725
vn 0.0366 -0.3363 0.9410
vn -0.0264 -0.8102 0.5856
vn 0.2633 -0.7108 0.6523
vn -0.1066 0.9831 0.1490
vn -0.1447 0.8551 0.4979
vn 0.1045 0.8674 0.4866
vn -0.4927 -0.8361 -0.2412
vn -0.4198 -0.7502 -0.5108
vn -0.1843 -0.8167 -0.5468
vn -0.9833 0.1806 -0.0221
vn -0.8689 0.0313 0.4940
vn -0.7060 0.5793 0.4073
vn 0.4537 -0.3457 0.8214
vn 0.4283 -0.1432 0.8922
vn 0.3625 -0.0732 0.9291
vn 0.9110 -0.3475 0.2220
vn 0.8765 -0.4424 -0.1899
vn 0.0995 0.9807 0.1682
vn 0.2979 0.9173 0.2642
vn 0.3092 0.9415 -0.1338
vn 0.0131 0.1307 -0.9913
vn -0.4288 0.1972 -0.8816
vn -0.4945 0.5537 -0.6700
vn -0.2352 -0.6229 -0.7461
vn 0.0326 -0.5520 -0.8332
vn -0.0513 -0.8008 -0.5967
vn 0.3932 -0.9120 -0.1168
vn 0.7316 -0.6740 -0.1026
vn 0.6341 -0.7384 0.2297
vn -0.4685 0.7668 0.4388
vn -0.5274 0.4062 0.7462
vn -0.5082 0.1844 0.8412
vn -0.1232 0.2716 0.9545
vn -0.9725 -0.1976 -0.1236
vn -0.8916 -0.2998 -0.3393
vn -0.6713 -0.6323 -0.3867
vn -0.6933 -0.7057 -0.1463
vn -0.4231 -0.2591 0.8683
vn -0.7927 -0.2758 0.5436
vn -0.7438 -0.5096 0.4325
vn 0.8792 0.1735 -0.4438
vn 0.5128 0.1147 -0.8508
vn 0.4465 0.4535 -0.7714
vn 0.6767 -0.6141 -0.4061
vn -0.6748 0.7185 -0.1685
vn -0.6062 0.6961 -0.3847
vn 0.1464 0.9762 -0.1600
vn 0.2485 0.8427 -0.4776
vn -0.0522 0.9205 -0.3873
vn 0.2796 0.2322 0.9316
vn 0.4087 0.1656 0.8975
vn 0.4850 0.5203 0.7029
vn 0.9274 0.3026 0.2198
vn -0.4802 0.0402 0.8763
vn 0.3609 -0.3529 0.8633
vn 0.4032 0.4638 -0.7889
vn 0.3401 0.7005 -0.6274
vn -0.9449 0.2476 -0.2140
vn -0.7952 0.5281 -0.2979
vn -0.9135 0.2373 -0.3304
vn -0.8730 -0.2985 0.3857
vn -0.9612 -0.2574 0.0990
vn -0.9067 -0.3964 0.1441
vn 0.7076 -0.3172 -0.6314
vn 0.6394 -0.0114 -0.7688
vn 0.8922 -0.1234 -0.4345
vn -0.3859 -0.7031 0.5972
vn -0.2106 -0.9487 -0.2359
vn -0.4884 -0.8726 0.0010
vn 0.7250 0.5493 -0.4155
vn 0.0808 -0.9792 -0.1862
vn 0.3121 -0.8265 -0.4684
vn -0.1122 0.5730 0.8118
vn 0.2085 0.5054 0.8373
vn -0.4264 0.8876 0.1740
vn -0.3951 0.8689 -0.2983
vn -0.4013 0.9006 -0.1673
vn -0.1210 0.9827 -0.1401
vn -0.4041 -0.6548 -0.6387
vn -0.4605 -0.3703 -0.8067
vn 0.6602 -0.3706 0.6533
vn 0.3745 -0.8024 0.4646
vn 0.7108 0.6389 0.2941
vn 0.1476 0.6984 0.7003
vn 0.5434 0.2171 0.8109
vn 0.7988 0.0311 0.6008
vn 0.8167 -0.4093 -0.4067
vn 0.2927 -0.7216 -0.6273
vn -0.3978 -0.8993 0.1820
vn -0.8167 -0.5611 0.1351
vn -0.7660 -0.6389 0.0713
vn -0.6442 0.0553 0.7629
vn -0.7244 -0.1072 0.6810
vn -0.0355 0.5690 -0.8216
vn -0.4663 0.7656 -0.4433
vn 0.4441 -0.5092 0.7373
vn 0.3537 0.4898 -0.7969
vn -0.0429 0.8199 -0.5708
vn -0.0277 0.0169 0.9995
vn -0.5061 -0.6147 -0.6049
vn -0.6732 -0.3766 -0.6363
vn 0.6216 0.5604 0.5474
vn 0.3670 0.7331 0.5726
vn 0.8649 0.2311 0.4457
vn 0.7983 0.3848 0.4633
vn 0.3923 -0.8933 0.2195
vn 0.6007 0.7990 0.0274
vn 0.8875 0.4412 0.1327
vn -0.8473 -0.5297 -0.0388
vn 0.3674 -0.3859 -0.8462
vn 0.6021 -0.5646 -0.5646
vn 0.3750 -0.0246 -0.9267
vn -0.7250 0.2350 -0.6475
vn -0.6846 0.5378 -0.4920
vn -0.9276 -0.3230 0.1877
vn 0.4960 -0.6858 0.5326
vn -0.1357 0.7225 0.6779
vn -0.3254 0.7023 0.6331
vn 0.4733 -0.1007 0.8751
# 131 vertex normals

vt 0.8483 0.1506 0.0000
vt 0.9800 0.1315 0.0000
vt 0.9680 0.2534 0.0000
vt 0.0200 0.7061 0.0000
vt 0.1675 0.7229 0.0000
vt 0.1303 0.7772 0.0000
vt 0.7758 0.3600 0.0000
vt 0.6496 0.3591 0.0000
vt 0.6531 0.2358 0.0000
vt 0.2574 0.4335 0.0000
vt 0.4120 0.5358 0.0000
vt 0.2591 0.5236 0.0000
vt 0.2000 0.7641 0.0000
vt 0.4951 0.7407 0.0000
vt 0.4039 0.7488 0.0000
vt 0.4317 0.6910 0.0000
vt 0.5795 0.0709 0.0000
vt 0.6818 0.1583 0.0000
vt 0.5993 0.1858 0.0000
vt 0.3456 0.9504 0.0000
vt 0.3211 0.8536 0.0000
vt 0.3944 0.8760 0.0000
vt 0.1822 0.6418 0.0000
vt 0.3063 0.6632 0.0000
vt 0.3109 0.7086 0.0000
vt 0.4241 0.4208 0.0000
vt 0.4315 0.3575 0.0000
vt 0.4975 0.3718 0.0000
vt 0.4025 0.6555 0.0000
vt 0.4755 0.5878 0.0000
vt 0.8002 0.3175 0.0000
vt 0.7771 0.2496 0.0000
vt 0.8521 0.2595 0.0000
vt 0.6057 0.3272 0.0000
vt 0.6022 0.2502 0.0000
vt 0.4419 0.2709 0.0000
vt 0.4026 0.8264 0.0000
vt 0.3155 0.7636 0.0000
vt 0.8046 0.0559 0.0000
vt 0.7651 0.1600 0.0000
vt 0.7041 0.0785 0.0000
vt 0.2710 0.8154 0.0000
vt 0.2674 0.8920 0.0000
vt 0.1748 0.8754 0.0000
vt 0.6001 0.4283 0.0000
vt 0.6838 0.4205 0.0000
vt 0.7273 0.4845 0.0000
vt 0.5468 0.2846 0.0000
vt 0.9028 0.3286 0.0000
vt 0.8406 0.3855 0.0000
vt 0.8363 0.2872 0.0000
vt 0.3703 0.6393 0.0000
vt 0.3838 0.6208 0.0000
vt 0.7768 0.4398 0.0000
vt 0.4962 0.5043 0.0000
vt 0.5507 0.5584 0.0000
vt 0.5605 0.6414 0.0000
vt 0.7845 0.2174 0.0000
vt 0.2637 0.9420 0.0000
vt 0.2057 0.9272 0.0000
vt 0.5910 0.3632 0.0000
vt 0.1786 0.8076 0.0000
vt 0.4769 0.0757 0.0000
vt 0.8771 0.4446 0.0000
vt 0.3522 0.4137 0.0000
vt 0.4470 0.4903 0.0000
vt 0.5132 0.2118 0.0000
vt 0.3588 0.7053 0.0000
vt 0.4857 0.8095 0.0000
vt 0.6510 0.1839 0.0000
vt 0.1504 0.5591 0.0000
vt 0.1494 0.6269 0.0000
vt 0.3079 0.5899 0.0000
vt 0.2587 0.6243 0.0000
vt 0.1165 0.8790 0.0000
vt 0.1856 0.9780 0.0000
vt 0.9645 0.3248 0.0000
vt 0.0990 0.6424 0.0000
vt 0.8295 0.5130 0.0000
vt 0.2811 0.3629 0.0000
vt 0.3735 0.3543 0.0000
vt 0.8895 0.1007 0.0000
vt 0.9388 0.4030 0.0000
vt 0.8918 0.4248 0.0000
vt 0.6224 0.0200 0.0000
vt 0.6694 0.0640 0.0000
# 86 texture coords

o rockLP001
g rockLP001
usemtl Unwrap_Texture_Checker_Material
s 1
f 1/1/1 2/2/2 3/3/3 
f 4/4/4 5/5/5 6/6/6 
f 7/7/7 8/8/8 9/9/9 
f 10/10/10 11/11/11 12/12/12 
f 13/13/13 6/6/14 5/5/15 
f 14/14/16 15/15/17 16/16/18 
f 17/17/19 18/18/20 19/19/21 
f 20/20/22 21/21/23 2/22/24 
f 22/23/25 23/24/26 24/25/27 
f 12/26/12 25/27/28 10/28/29 
f 14/14/30 26/29/31 27/30/32 
f 28/31/33 29/32/34 30/33/35 
f 9/9/36 31/34/37 32/35/38 
f 33/36/39 10/28/40 25/27/41 
f 34/37/42 15/15/17 14/14/16 
f 34/37/43 21/21/44 35/38/45 
f 29/32/34 28/31/33 9/9/9 
f 36/39/46 37/40/47 18/18/48 
f 17/17/19 38/41/49 18/18/48 
f 39/42/50 40/43/51 41/44/52 
f 42/45/53 43/46/54 44/47/55 
f 45/48/56 10/28/40 33/36/39 
f 1/1/1 3/3/57 30/33/58 
f 46/49/59 47/50/60 48/51/61 
f 24/25/62 23/24/63 49/52/64 
f 50/53/65 12/12/12 11/11/11 
f 35/38/45 21/21/44 39/42/66 
f 13/13/13 5/5/67 24/25/27 
f 51/54/68 43/46/54 7/7/7 
f 51/55/69 47/56/60 46/57/59 
f 37/40/47 36/39/46 1/1/70 
f 30/33/71 52/58/72 1/1/70 
f 40/43/73 36/59/74 53/60/75 
f 21/21/23 20/20/22 36/59/74 
f 8/8/8 31/34/37 9/9/36 
f 54/61/76 8/8/77 42/45/78 
f 41/44/52 55/62/79 39/42/50 
f 19/19/80 6/63/6 17/17/81 
f 46/49/59 27/64/32 51/54/69 
f 11/11/11 42/65/53 44/66/82 
f 6/63/6 19/19/80 4/67/83 
f 4/67/83 32/35/38 45/48/84 
f 35/38/45 56/68/85 34/37/43 
f 49/52/64 56/68/86 24/25/62 
f 14/14/16 3/69/87 34/37/42 
f 48/51/88 3/3/89 46/49/90 
f 57/70/91 29/32/92 9/9/9 
f 9/9/36 19/19/21 57/70/91 
f 22/23/93 25/71/28 12/12/12 
f 58/72/94 5/5/5 4/4/4 
f 27/30/32 26/29/31 50/53/95 
f 49/52/64 16/16/96 56/68/86 
f 23/24/63 59/73/97 49/52/64 
f 12/12/12 60/74/98 22/23/93 
f 54/61/99 42/45/78 10/28/10 
f 11/11/11 10/10/10 42/65/78 
f 45/48/56 54/61/99 10/28/29 
f 45/48/100 32/35/38 31/34/37 
f 17/75/81 55/62/101 41/44/102 
f 17/75/81 53/60/103 38/76/49 
f 36/59/74 40/43/73 21/21/23 
f 21/21/104 40/43/105 39/42/66 
f 28/31/106 30/33/35 48/51/107 
f 3/3/89 48/51/88 30/33/58 
f 24/25/27 5/5/67 22/23/25 
f 5/5/5 58/72/94 22/23/108 
f 9/9/9 28/31/33 7/7/7 
f 7/7/109 28/31/106 48/51/110 
f 39/42/66 13/13/111 35/38/45 
f 13/13/13 39/42/50 55/62/79 
f 1/1/70 52/58/72 37/40/47 
f 18/18/112 37/40/113 29/32/92 
f 49/52/64 50/53/114 26/29/115 
f 59/73/116 50/53/117 49/52/64 
f 34/37/42 3/69/3 2/22/2 
f 34/37/43 2/22/24 21/21/23 
f 14/77/16 46/49/90 3/3/89 
f 27/64/32 46/49/59 14/77/30 
f 4/4/4 33/78/118 58/72/94 
f 45/48/84 33/36/39 4/67/83 
f 51/54/69 27/64/119 11/79/120 
f 11/11/120 27/30/119 50/53/95 
f 32/35/38 19/19/21 9/9/36 
f 32/35/38 4/67/83 19/19/80 
f 42/45/78 8/8/77 43/46/54 
f 8/8/8 7/7/7 43/46/54 
f 55/62/79 6/6/14 13/13/13 
f 55/62/101 17/75/81 6/6/6 
f 38/76/121 53/60/75 36/59/74 
f 18/18/48 38/41/121 36/39/46 
f 31/34/122 54/61/76 45/48/123 
f 54/61/76 31/34/122 8/8/124 
f 35/38/45 13/13/111 24/25/27 
f 56/68/85 35/38/45 24/25/62 
f 50/80/117 59/81/116 12/26/12 
f 59/73/116 60/74/98 12/12/12 
f 11/11/120 44/66/82 51/55/69 
f 43/46/54 51/54/68 44/47/55 
f 48/51/110 47/50/60 7/7/109 
f 7/7/109 47/50/60 51/54/69 
f 36/39/74 20/82/22 1/1/70 
f 20/82/22 2/2/2 1/1/1 
f 29/32/34 52/58/125 30/33/126 
f 29/32/92 37/40/113 52/58/125 
f 14/77/30 16/83/18 26/84/115 
f 49/52/64 26/29/115 16/16/18 
f 41/44/102 40/43/127 53/60/75 
f 41/85/102 53/86/103 17/17/81 
f 33/78/118 25/71/41 58/72/128 
f 25/71/28 22/23/93 58/72/128 
f 29/32/92 57/70/91 18/18/112 
f 19/19/21 18/18/20 57/70/91 
f 56/68/86 16/16/96 15/15/129 
f 56/68/85 15/15/129 34/37/130 
f 22/23/25 60/74/131 23/24/26 
f 60/74/131 59/73/97 23/24/63 
# 0 polygons - 116 triangles

