# 3ds Max Wavefront OBJ Exporter v0.97b - (c)2007 guruware
# File Created: 17.12.2017 02:33:46

mtllib rock_d_01.mtl

#
# object rockLP001
#

v  -0.1003 -0.0957 -1.2725
v  -0.4041 -0.7994 -0.9223
v  -0.8979 -0.7687 -0.7152
v  -1.0293 -0.2779 -0.9620
v  -0.1852 -0.8109 -0.9374
v  0.0629 -0.8059 -0.9368
v  0.3045 -0.7823 -0.9055
v  0.8022 -0.5749 -0.7626
v  1.1469 -0.0186 -1.0539
v  -1.0377 -0.0464 -0.9998
v  1.1691 0.2325 -1.0565
v  -1.0601 0.2014 -1.0350
v  1.1900 0.4838 -1.0755
v  -1.0214 0.4381 -1.0120
v  1.1329 0.8481 -1.1034
v  -0.7452 0.8535 -0.8457
v  -0.1743 1.2281 -1.1012
v  0.0738 1.2389 -1.0639
v  0.3235 1.2636 -1.0824
v  0.7280 1.1841 -1.0952
v  1.1532 1.0879 -0.7495
v  0.0154 0.0083 1.2725
v  -1.0356 -0.7186 1.0371
v  -0.8836 -1.0571 0.8647
v  -0.4030 -1.2995 1.0993
v  -0.1672 -1.2855 1.1048
v  0.0710 -1.3012 1.1429
v  0.5017 -1.2401 1.0700
v  1.0598 -0.7255 0.9587
v  1.1717 -0.4683 1.0060
v  -1.0454 -0.4832 1.0500
v  1.1925 -0.2170 1.0099
v  -1.0371 -0.2467 1.0489
v  1.2060 0.0384 1.0076
v  -1.0178 0.0074 1.0600
v  1.1982 0.2737 0.9829
v  -0.7488 0.5886 0.8175
v  -0.1711 0.8165 0.9938
v  0.0860 0.8313 1.0249
v  0.3258 0.8326 1.0123
v  0.5777 0.8314 1.0064
v  1.0381 0.7758 0.7587
v  -0.1367 -1.2858 -0.0466
v  -1.2219 -1.1735 -0.2169
v  0.9584 -0.9061 -0.3314
v  -1.2476 -1.1993 0.0101
v  0.9806 -0.9206 -0.0811
v  -1.2288 -1.1805 0.2414
v  0.9761 -0.9050 0.1650
v  -1.2127 -1.1643 0.4802
v  0.9344 -0.9708 0.5934
v  1.2750 0.0624 0.0585
v  1.2597 1.1825 -0.4851
v  1.2625 1.1853 -0.2325
v  1.2932 1.2160 0.0480
v  1.2281 1.1509 0.2588
v  0.0484 1.3012 0.0262
v  -0.9942 0.8743 -0.4100
v  -1.0483 0.9479 -0.1464
v  -1.0345 0.9420 0.1237
v  -1.0293 0.9501 0.3548
v  -1.2932 -0.0460 -0.0685
# 62 vertices

vn -0.0466 -0.1559 -0.9867
vn -0.2377 -0.6332 -0.7366
vn -0.5260 -0.5393 -0.6577
vn -0.6785 -0.3194 -0.6615
vn -0.0372 -0.6874 -0.7254
vn 0.0954 -0.6822 -0.7249
vn 0.3350 -0.6595 -0.6729
vn 0.5524 -0.5831 -0.5957
vn 0.6903 -0.3337 -0.6420
vn -0.7031 -0.1517 -0.6947
vn 0.7364 -0.0960 -0.6697
vn -0.7130 0.0365 -0.7002
vn 0.7704 0.0041 -0.6376
vn -0.6520 0.4350 -0.6211
vn 0.6717 0.2464 -0.6987
vn -0.5862 0.6105 -0.5325
vn -0.2793 0.7010 -0.6561
vn -0.0382 0.7564 -0.6529
vn 0.0255 0.7724 -0.6346
vn 0.2251 0.7180 -0.6586
vn 0.7215 0.6259 -0.2962
vn -0.0196 0.0998 0.9948
vn -0.6379 -0.3759 0.6722
vn -0.5495 -0.6145 0.5661
vn -0.2975 -0.7182 0.6290
vn -0.0592 -0.7496 0.6592
vn 0.0365 -0.7333 0.6789
vn 0.3896 -0.7257 0.5670
vn 0.7248 -0.4231 0.5438
vn 0.7511 -0.2793 0.5982
vn -0.7012 -0.0316 0.7122
vn 0.7565 -0.0559 0.6516
vn -0.7052 0.0266 0.7085
vn 0.7547 0.0292 0.6554
vn -0.6642 0.2649 0.6991
vn 0.7194 0.2934 0.6295
vn -0.5354 0.5262 0.6607
vn -0.2966 0.6399 0.7089
vn -0.0418 0.6460 0.7622
vn 0.0267 0.6561 0.7542
vn 0.3008 0.5583 0.7732
vn 0.6052 0.5254 0.5981
vn 0.0666 -0.9691 -0.2376
vn -0.6383 -0.6334 -0.4374
vn 0.6398 -0.6580 -0.3972
vn -0.7196 -0.6942 -0.0164
vn 0.7160 -0.6976 -0.0266
vn -0.7172 -0.6891 0.1036
vn 0.7419 -0.6705 0.0104
vn -0.7043 -0.5713 0.4215
vn 0.7086 -0.7053 -0.0190
vn 0.9920 -0.1235 -0.0267
vn 0.7117 0.6428 -0.2834
vn 0.7355 0.6733 -0.0763
vn 0.7279 0.6758 0.1161
vn 0.6126 0.6047 0.5090
vn -0.1126 0.9781 0.1751
vn -0.7189 0.5767 -0.3880
vn -0.7160 0.6833 -0.1434
vn -0.7334 0.6795 0.0203
vn -0.6617 0.6352 0.3984
vn -0.9965 0.0817 -0.0179
# 62 vertex normals

vt -0.0203 -0.0240 0.1557
vt 0.0591 -0.2078 0.0643
vt 0.1880 -0.1998 0.0102
vt 0.2224 -0.0716 0.0746
vt 0.0019 -0.2108 0.0682
vt -0.0629 -0.2095 0.0681
vt -0.1260 -0.2033 0.0599
vt -0.2560 -0.1491 0.0226
vt -0.3461 -0.0038 0.0986
vt 0.2246 -0.0111 0.0845
vt -0.3519 0.0618 0.0993
vt 0.2304 0.0536 0.0937
vt -0.3573 0.1274 0.1043
vt 0.2203 0.1155 0.0877
vt -0.3424 0.2226 0.1116
vt 0.1482 0.2240 0.0443
vt -0.0010 0.3218 0.1110
vt -0.0658 0.3246 0.1013
vt -0.1310 0.3311 0.1061
vt -0.2366 0.3103 0.1094
vt 0.4366 0.1094 0.3103
vt 0.5477 0.0191 0.2852
vt 0.5424 0.1116 0.2226
vt 0.2505 0.0032 -0.5090
vt -0.0240 -0.1867 -0.4475
vt 0.0157 -0.2751 -0.4025
vt 0.1412 -0.3384 -0.4638
vt 0.2028 -0.3347 -0.4652
vt 0.2650 -0.3388 -0.4752
vt 0.3775 -0.3229 -0.4561
vt 0.5233 -0.1885 -0.4270
vt 0.5525 -0.1213 -0.4394
vt -0.0266 -0.1252 -0.4509
vt 0.5580 -0.0556 -0.4404
vt -0.0244 -0.0634 -0.4506
vt 0.5615 0.0111 -0.4398
vt -0.0194 0.0030 -0.4535
vt 0.5595 0.0725 -0.4334
vt 0.0509 0.1548 -0.3902
vt 0.2018 0.2143 -0.4362
vt 0.2690 0.2182 -0.4443
vt 0.3316 0.2185 -0.4410
vt 0.3974 0.2182 -0.4395
vt 0.5176 0.2037 -0.3748
vt -0.0108 -0.1645 -0.3348
vt 0.2727 -0.1200 -0.3055
vt 0.1880 0.0102 -0.1998
vt 0.0591 0.0643 -0.2078
vt 0.0019 0.0682 -0.2108
vt -0.0629 0.0681 -0.2095
vt -0.1260 0.0599 -0.2033
vt -0.2560 0.0226 -0.1491
vt -0.2968 -0.0901 -0.2356
vt 0.2794 -0.1793 -0.3122
vt -0.3026 -0.1555 -0.2394
vt 0.2745 -0.2397 -0.3073
vt -0.3014 -0.2197 -0.2354
vt 0.2703 -0.3021 -0.3031
vt -0.2906 -0.3316 -0.2525
vt 0.1843 -0.4025 -0.2751
vt 0.0588 -0.4638 -0.3384
vt -0.0028 -0.4652 -0.3347
vt -0.0650 -0.4752 -0.3388
vt -0.1775 -0.4561 -0.3229
vt -0.3233 -0.4270 -0.1885
vt -0.1919 0.0173 0.5795
vt -0.0901 -0.2356 0.4968
vt 0.0226 -0.1491 0.4560
vt 0.0986 -0.0038 0.5461
vt 0.0993 0.0618 0.5519
vt 0.1043 0.1274 0.5573
vt 0.1116 0.2226 0.5424
vt 0.0191 0.2852 0.5477
vt -0.0499 0.3099 0.5755
vt -0.1555 -0.2394 0.5026
vt -0.1159 0.3106 0.5763
vt -0.2197 -0.2354 0.5014
vt -0.1892 0.3186 0.5843
vt -0.3316 -0.2525 0.4906
vt -0.2442 0.3016 0.5673
vt -0.4270 -0.1885 0.5233
vt -0.4394 -0.1213 0.5525
vt -0.4404 -0.0556 0.5580
vt -0.4398 0.0111 0.5615
vt -0.4334 0.0725 0.5595
vt -0.3748 0.2037 0.5176
vt 0.2591 -0.1835 0.3409
vt 0.5755 -0.0499 0.3099
vt 0.3310 0.1061 0.3311
vt 0.2658 0.1013 0.3246
vt 0.2010 0.1110 0.3218
vt 0.0518 0.0443 0.2240
vt -0.0132 -0.0695 0.2294
vt 0.5763 -0.1159 0.3106
vt -0.0273 -0.1384 0.2486
vt 0.5843 -0.1892 0.3186
vt -0.0237 -0.2089 0.2471
vt 0.5673 -0.2442 0.3016
vt -0.0224 -0.2693 0.2492
vt 0.5176 -0.3748 0.2037
vt 0.3974 -0.4395 0.2182
vt 0.3316 -0.4410 0.2185
vt 0.2690 -0.4443 0.2182
vt 0.2018 -0.4362 0.2143
vt 0.0509 -0.3902 0.1548
vt 0.3587 -0.0110 -0.0913
vt 0.2695 0.2294 -0.0132
vt 0.1557 0.2240 0.0518
vt 0.1123 0.1155 -0.0203
vt 0.1063 0.0536 -0.0304
vt 0.1155 -0.0111 -0.0246
vt 0.1254 -0.0716 -0.0224
vt 0.1898 -0.1998 0.0120
vt 0.3200 -0.3055 -0.0727
vt 0.3384 0.2486 -0.0273
vt 0.3793 -0.3122 -0.0794
vt 0.4089 0.2471 -0.0237
vt 0.4397 -0.3073 -0.0745
vt 0.4693 0.2492 -0.0224
vt 0.5021 -0.3031 -0.0703
vt 0.5902 0.1548 0.0509
vt 0.6535 0.0030 -0.0194
vt 0.6506 -0.0634 -0.0244
vt 0.6509 -0.1252 -0.0266
vt 0.6475 -0.1867 -0.0240
vt 0.6025 -0.2751 0.0157
# 126 texture coords

o rockLP001
g rockLP001
usemtl Unwrap_Texture_Checker_Material
s 1
f 1/1/1 2/2/2 3/3/3 
f 3/3/3 4/4/4 1/1/1 
f 5/5/5 2/2/2 1/1/1 
f 6/6/6 5/5/5 1/1/1 
f 7/7/7 6/6/6 1/1/1 
f 8/8/8 7/7/7 1/1/1 
f 1/1/1 9/9/9 8/8/8 
f 1/1/1 4/4/4 10/10/10 
f 1/1/1 11/11/11 9/9/9 
f 1/1/1 10/10/10 12/12/12 
f 1/1/1 13/13/13 11/11/11 
f 1/1/1 12/12/12 14/14/14 
f 15/15/15 13/13/13 1/1/1 
f 1/1/1 14/14/14 16/16/16 
f 16/16/16 17/17/17 1/1/1 
f 17/17/17 18/18/18 1/1/1 
f 18/18/18 19/19/19 1/1/1 
f 1/1/1 19/19/19 20/20/20 
f 15/15/15 1/1/1 20/20/20 
f 20/21/20 21/22/21 15/23/15 
f 22/24/22 23/25/23 24/26/24 
f 24/26/24 25/27/25 22/24/22 
f 25/27/25 26/28/26 22/24/22 
f 22/24/22 26/28/26 27/29/27 
f 22/24/22 27/29/27 28/30/28 
f 22/24/22 28/30/28 29/31/29 
f 29/31/29 30/32/30 22/24/22 
f 22/24/22 31/33/31 23/25/23 
f 30/32/30 32/34/32 22/24/22 
f 33/35/33 31/33/31 22/24/22 
f 32/34/32 34/36/34 22/24/22 
f 35/37/35 33/35/33 22/24/22 
f 34/36/34 36/38/36 22/24/22 
f 37/39/37 35/37/35 22/24/22 
f 22/24/22 38/40/38 37/39/37 
f 22/24/22 39/41/39 38/40/38 
f 22/24/22 40/42/40 39/41/39 
f 41/43/41 40/42/40 22/24/22 
f 42/44/42 41/43/41 22/24/22 
f 22/24/22 36/38/36 42/44/42 
f 43/45/43 44/46/44 3/47/3 
f 3/47/3 2/48/2 43/45/43 
f 2/48/2 5/49/5 43/45/43 
f 43/45/43 5/49/5 6/50/6 
f 43/45/43 6/50/6 7/51/7 
f 43/45/43 7/51/7 8/52/8 
f 8/52/8 45/53/45 43/45/43 
f 43/45/43 46/54/46 44/46/44 
f 45/53/45 47/55/47 43/45/43 
f 48/56/48 46/54/46 43/45/43 
f 47/55/47 49/57/49 43/45/43 
f 50/58/50 48/56/48 43/45/43 
f 43/45/43 49/57/49 51/59/51 
f 24/60/24 50/58/50 43/45/43 
f 43/45/43 25/61/25 24/60/24 
f 43/45/43 26/62/26 25/61/25 
f 43/45/43 27/63/27 26/62/26 
f 43/45/43 28/64/28 27/63/27 
f 28/64/28 43/45/43 51/59/51 
f 51/59/51 29/65/29 28/64/28 
f 52/66/52 45/67/45 8/68/8 
f 8/68/8 9/69/9 52/66/52 
f 9/69/9 11/70/11 52/66/52 
f 52/66/52 11/70/11 13/71/13 
f 52/66/52 13/71/13 15/72/15 
f 52/66/52 15/72/15 21/73/21 
f 21/73/21 53/74/53 52/66/52 
f 52/66/52 47/75/47 45/67/45 
f 53/74/53 54/76/54 52/66/52 
f 52/66/52 49/77/49 47/75/47 
f 54/76/54 55/78/55 52/66/52 
f 51/79/51 49/77/49 52/66/52 
f 55/78/55 56/80/56 52/66/52 
f 29/81/29 51/79/51 52/66/52 
f 52/66/52 30/82/30 29/81/29 
f 52/66/52 32/83/32 30/82/30 
f 34/84/34 32/83/32 52/66/52 
f 36/85/36 34/84/34 52/66/52 
f 42/86/42 36/85/36 52/66/52 
f 52/66/52 56/80/56 42/86/42 
f 57/87/57 53/88/53 21/22/21 
f 21/22/21 20/21/20 57/87/57 
f 20/21/20 19/89/19 57/87/57 
f 19/89/19 18/90/18 57/87/57 
f 57/87/57 18/90/18 17/91/17 
f 57/87/57 17/91/17 16/92/16 
f 16/92/16 58/93/58 57/87/57 
f 57/87/57 54/94/54 53/88/53 
f 58/93/58 59/95/59 57/87/57 
f 57/87/57 55/96/55 54/94/54 
f 59/95/59 60/97/60 57/87/57 
f 57/87/57 56/98/56 55/96/55 
f 57/87/57 60/97/60 61/99/61 
f 42/100/42 56/98/56 57/87/57 
f 57/87/57 41/101/41 42/100/42 
f 57/87/57 40/102/40 41/101/41 
f 57/87/57 39/103/39 40/102/40 
f 38/104/38 39/103/39 57/87/57 
f 37/105/37 38/104/38 57/87/57 
f 57/87/57 61/99/61 37/105/37 
f 62/106/62 58/107/58 16/108/16 
f 16/108/16 14/109/14 62/106/62 
f 14/109/14 12/110/12 62/106/62 
f 12/110/12 10/111/10 62/106/62 
f 62/106/62 10/111/10 4/112/4 
f 62/106/62 4/112/4 3/113/3 
f 3/113/3 44/114/44 62/106/62 
f 62/106/62 59/115/59 58/107/58 
f 44/114/44 46/116/46 62/106/62 
f 62/106/62 60/117/60 59/115/59 
f 46/116/46 48/118/48 62/106/62 
f 61/119/61 60/117/60 62/106/62 
f 62/106/62 48/118/48 50/120/50 
f 37/121/37 61/119/61 62/106/62 
f 62/106/62 35/122/35 37/121/37 
f 62/106/62 33/123/33 35/122/35 
f 31/124/31 33/123/33 62/106/62 
f 23/125/23 31/124/31 62/106/62 
f 24/126/24 23/125/23 62/106/62 
f 62/106/62 50/120/50 24/126/24 
# 0 polygons - 120 triangles

